<?xml version="1.0" encoding="UTF-8"?>
<svg id="Layer_2" data-name="Layer 2" xmlns="http://www.w3.org/2000/svg" xmlns:xlink="http://www.w3.org/1999/xlink" viewBox="0 0 208.47 315.44">
  <defs>
    <style>
      .cls-1 {
        fill: url(#linear-gradient-12);
      }

      .cls-1, .cls-2, .cls-3, .cls-4, .cls-5, .cls-6, .cls-7, .cls-8, .cls-9, .cls-10, .cls-11, .cls-12, .cls-13, .cls-14, .cls-15, .cls-16 {
        stroke-width: 0px;
      }

      .cls-2 {
        fill: url(#linear-gradient);
      }

      .cls-3 {
        fill: url(#linear-gradient-6);
      }

      .cls-4 {
        fill: url(#linear-gradient-15);
      }

      .cls-5 {
        fill: url(#linear-gradient-11);
      }

      .cls-6 {
        fill: url(#linear-gradient-5);
      }

      .cls-7 {
        fill: url(#linear-gradient-13);
      }

      .cls-8 {
        fill: url(#linear-gradient-16);
      }

      .cls-9 {
        fill: url(#linear-gradient-14);
      }

      .cls-10 {
        fill: url(#linear-gradient-2);
      }

      .cls-11 {
        fill: url(#linear-gradient-7);
      }

      .cls-12 {
        fill: url(#linear-gradient-3);
      }

      .cls-13 {
        fill: url(#linear-gradient-9);
      }

      .cls-14 {
        fill: url(#linear-gradient-8);
      }

      .cls-15 {
        fill: url(#linear-gradient-10);
      }

      .cls-16 {
        fill: url(#linear-gradient-4);
      }
    </style>
    <linearGradient id="linear-gradient" x1="132.14" y1="93.21" x2="132.14" y2="93.21" gradientUnits="userSpaceOnUse">
      <stop offset="0" stop-color="#39fff3"/>
      <stop offset="0" stop-color="#38fdf2"/>
      <stop offset=".03" stop-color="#37ebe7"/>
      <stop offset=".06" stop-color="#36dfe1"/>
      <stop offset=".1" stop-color="#36dcdf"/>
      <stop offset=".35" stop-color="#27a7c9"/>
      <stop offset=".7" stop-color="#1f7db6"/>
      <stop offset="1" stop-color="#1f68b3"/>
    </linearGradient>
    <linearGradient id="linear-gradient-2" x1="56.26" y1="90.2" x2="56.26" y2="90.2" xlink:href="#linear-gradient"/>
    <linearGradient id="linear-gradient-3" x1="41.41" y1="105.05" x2="41.41" y2="105.05" xlink:href="#linear-gradient"/>
    <linearGradient id="linear-gradient-4" x1="101.78" y1="36.65" x2="101.78" y2="36.66" xlink:href="#linear-gradient"/>
    <linearGradient id="linear-gradient-5" x1="107.56" y1="315.41" x2="107.56" y2="315.41" xlink:href="#linear-gradient"/>
    <linearGradient id="linear-gradient-6" x1="107.55" y1="307.38" x2="107.55" y2="307.38" xlink:href="#linear-gradient"/>
    <linearGradient id="linear-gradient-7" x1="107.52" y1="315.3" x2="107.59" y2="315.37" xlink:href="#linear-gradient"/>
    <linearGradient id="linear-gradient-8" x1="107.52" y1="307.29" x2="107.58" y2="307.35" xlink:href="#linear-gradient"/>
    <linearGradient id="linear-gradient-9" x1="-2.55" y1="64.39" x2="189.79" y2="256.72" xlink:href="#linear-gradient"/>
    <linearGradient id="linear-gradient-10" x1="101.7" y1="36.73" x2="101.85" y2="36.88" xlink:href="#linear-gradient"/>
    <linearGradient id="linear-gradient-11" x1="125.08" y1="92.24" x2="125.08" y2="92.25" xlink:href="#linear-gradient"/>
    <linearGradient id="linear-gradient-12" x1="126.54" y1="90.78" x2="126.55" y2="90.79" xlink:href="#linear-gradient"/>
    <linearGradient id="linear-gradient-13" x1="131.97" y1="85.35" x2="131.98" y2="85.36" xlink:href="#linear-gradient"/>
    <linearGradient id="linear-gradient-14" x1="34.18" y1="104.25" x2="34.77" y2="104.85" xlink:href="#linear-gradient"/>
    <linearGradient id="linear-gradient-15" x1="34.18" y1="104.25" x2="34.77" y2="104.85" xlink:href="#linear-gradient"/>
    <linearGradient id="linear-gradient-16" x1="11.9" y1="113.64" x2="28.41" y2="130.15" xlink:href="#linear-gradient"/>
  </defs>
  <g id="Layer_1-2" data-name="Layer 1">
    <g>
      <polyline class="cls-2" points="135.15 90.19 131.62 93.72 129.12 96.22"/>
      <line class="cls-10" x1="56.26" y1="90.19" x2="56.25" y2="90.2"/>
      <line class="cls-12" x1="41.69" y1="104.76" x2="41.12" y2="105.33"/>
      <line class="cls-16" x1="101.85" y1="36.58" x2="101.7" y2="36.73"/>
      <line class="cls-6" x1="107.59" y1="315.37" x2="107.52" y2="315.44"/>
      <line class="cls-3" x1="107.58" y1="307.35" x2="107.52" y2="307.41"/>
      <line class="cls-11" x1="107.59" y1="315.37" x2="107.52" y2="315.3"/>
      <line class="cls-14" x1="107.58" y1="307.35" x2="107.52" y2="307.29"/>
      <path class="cls-13" d="M180.13,107.14l-2.38-2.38-.46-.46-12.39-12.39-1.72-1.72-2.29-2.29-8.75-8.75v-31.18l-5.67-5.66-1.76-1.77-13.09-13.08-5.67-5.67-.64-.65-4.01-4.01-13.13-13.12-4.01-4.01-4.01,4.01-11.57,11.58-4.01,4-6.87,6.87-9.17,9.17-6.61,6.61-5.67,5.67v13.93H0v28.35h107.52V11.37l36.88,36.88,2.07,2.08v23.15l-11.64-11.64-3.21-3.21-1.96-1.96h-.01s-.53-.54-.53-.54l-3.17-3.17-3.59-3.59c-1.11-1.11-2.9-1.1-4.01.01-1.1,1.1-1.11,2.89,0,4l8.46,8.46,4.81,4.8,9.53,9.53,5.32,5.32v20.83l-5.62,5.62-9.23,9.23-24.1,24.1-5.67,5.67-18.48,18.48-4.64,4.64-1.03,1.03-15.78,15.78-5.67,5.67v17.16h-27.91v-12.7l26.94-26.94.97-.97,5.67-5.67,15.78-15.78,5.67-5.67,18.48-18.48,24.1-24.1,3.17-3.17h0s2.5-2.5,2.5-2.5h0s3.53-3.53,3.53-3.53l1.19-1.19c1.11-1.11,1.1-2.89-.01-4s-2.89-1.11-4,0l-.71.71-4.48,4.48-1.19,1.19-.83.83-.08.08-12.48,12.47h-32.07L0,185.25v52.79h56.25v25.99l51.27,51.27v-105.6h-45.6v-14.81l15.78-15.78,53.92-53.92,13.24-13.24,1.61,1.62,33.66,33.66v22.83h-27.99v-40.6l-5.67,5.67-14.85,14.85-5.67,5.67-14.41,14.41-4.02,4.02-5.67,5.66-18.48,18.48v.19h42.58v49.75c-2.7,1.12-4.61,3.78-4.61,6.89s1.91,5.77,4.61,6.89c.87.35,1.83.55,2.83.55s1.97-.2,2.84-.56c2.69-1.12,4.59-3.78,4.59-6.88s-1.9-5.76-4.59-6.88v-49.76h14.85v70.05l-12.47,12.47c-1.11,1.11-1.1,2.9.01,4.01,1.11,1.1,2.9,1.11,4.01,0l7.29-7.29,1.16-1.16,5.67-5.67v-72.41h27.99v39.63h28.34v-102.56l-28.34-28.34ZM101.85,61.84h-39.93v-11.59l2.01-2,8.61-8.62,5.16-5.15,5.67-5.67,5.2-5.21,4.01-4.01,9.27-9.26v51.51ZM77.7,238.04v25.68c0,1.57,1.27,2.83,2.84,2.83s2.83-1.26,2.83-2.83v-25.68h18.48v63.58l-18.48-18.48-5.67-5.67-15.78-15.78v-23.65h15.78Z"/>
      <line class="cls-15" x1="101.85" y1="36.88" x2="101.7" y2="36.73"/>
      <polyline class="cls-5" points="125.04 92.29 125.11 92.21 125.12 92.21"/>
      <polyline class="cls-1" points="125.95 91.38 125.95 91.37 127.13 90.19 127.14 90.19"/>
      <polyline class="cls-7" points="131.62 85.71 131.62 85.7 132.33 85"/>
      <path class="cls-9" d="M34.86,104.76c-.25-.16-.5-.3-.77-.42"/>
      <path class="cls-4" d="M34.86,104.76c-.25-.16-.5-.3-.77-.42"/>
      <path class="cls-8" d="M41.12,105.33c-.11-.19-.23-.38-.35-.57-.91-1.43-2.13-2.63-3.57-3.53-1.81-1.16-3.95-1.82-6.24-1.82-.9,0-1.78.1-2.62.3-3.01.69-5.57,2.53-7.19,5.05-1.18,1.82-1.87,4-1.87,6.33s.66,4.43,1.82,6.24L1.28,137.15c-1.11,1.11-1.1,2.9.01,4.01,1.1,1.1,2.89,1.11,4,0l19.91-19.91c.97.55,2.02.97,3.14,1.22.84.2,1.72.3,2.62.3,6.45,0,11.68-5.23,11.68-11.68,0-2.09-.55-4.06-1.52-5.76ZM30.96,118.53c-.91,0-1.78-.16-2.58-.46-.02,0-.03-.01-.04-.02-1.83-.68-3.31-2.07-4.13-3.83-.44-.95-.69-2.01-.69-3.13,0-2.68,1.42-5.03,3.54-6.33.4-.26.83-.47,1.28-.63.81-.31,1.7-.48,2.62-.48,1.12,0,2.18.25,3.13.69.27.12.52.26.77.42,1.4.86,2.5,2.18,3.08,3.75.3.8.46,1.67.46,2.58,0,4.11-3.33,7.44-7.44,7.44Z"/>
    </g>
  </g>
</svg>